/* XPM */
static char *_a4d3627a2bd4d949471eb8768e11892dOAMwACsNLkFukT4[] = {
/* columns rows colors chars-per-pixel */
"64 64 230 2 ",
"   c #030404",
".  c #0F1111",
"X  c #24291D",
"o  c #323631",
"O  c #36541E",
"+  c #3E592A",
"@  c #3E6838",
"#  c #425C2D",
"$  c #445C32",
"%  c #47652C",
"&  c #4E752F",
"*  c #4C6837",
"=  c #536D38",
"-  c #4A763B",
";  c #567536",
":  c #54753D",
">  c #5B7B3D",
",  c #3D3F41",
"<  c #3D4241",
"1  c #4A5255",
"2  c #53595C",
"3  c #576A4A",
"4  c #4D7C43",
"5  c #5A7643",
"6  c #537B43",
"7  c #587845",
"8  c #5D7B49",
"9  c #5B6852",
"0  c #617C44",
"q  c #617D4D",
"w  c #657A58",
"e  c #545C62",
"r  c #5A5F66",
"t  c #5B6266",
"y  c #5A6865",
"u  c #56636B",
"i  c #5D656A",
"p  c #5E696D",
"a  c #61676B",
"s  c #646869",
"d  c #646B6E",
"f  c #74626C",
"g  c #6A756A",
"h  c #6C7B6D",
"j  c #71776C",
"k  c #717F6C",
"l  c #646D72",
"z  c #696E74",
"x  c #766D73",
"c  c #667175",
"v  c #6A7275",
"b  c #6D7A77",
"n  c #6C747A",
"m  c #747876",
"M  c #70767B",
"N  c #727A7D",
"B  c #837677",
"V  c #4D8444",
"C  c #548246",
"Z  c #57844A",
"A  c #5B854A",
"S  c #5E894C",
"D  c #5A994B",
"F  c #668548",
"G  c #64854B",
"H  c #638B4D",
"J  c #6A8D4E",
"K  c #758D4B",
"L  c #6D934F",
"P  c #789147",
"I  c #74944E",
"U  c #7C9D4E",
"Y  c #6C8D52",
"T  c #688855",
"R  c #738C59",
"E  c #679151",
"W  c #6C9352",
"Q  c #6E9A52",
"!  c #729553",
"~  c #749C53",
"^  c #799D52",
"/  c #74955C",
"(  c #789659",
")  c #7B9C5C",
"_  c #75A252",
"`  c #73A156",
"'  c #7BA452",
"]  c #7BAA53",
"[  c #7DA559",
"{  c #75AA58",
"}  c #7DAC59",
"|  c #79B159",
" . c #7EB059",
".. c #6D8567",
"X. c #72836B",
"o. c #758968",
"O. c #6D9C63",
"+. c #7A9665",
"@. c #748275",
"#. c #7A8B74",
"$. c #77827B",
"%. c #79847B",
"&. c #7E8C7B",
"*. c #7B9372",
"=. c #7A9579",
"-. c #7CA365",
";. c #839D59",
":. c #81A354",
">. c #81A955",
",. c #84A45B",
"<. c #82AD5B",
"1. c #89A95E",
"2. c #82B35D",
"3. c #869A69",
"4. c #838B7B",
"5. c #819474",
"6. c #849C75",
"7. c #84957C",
"8. c #869B79",
"9. c #889A7C",
"0. c #989D78",
"q. c #A28D7F",
"w. c #84AB63",
"e. c #8CAB62",
"r. c #87A768",
"t. c #95A667",
"y. c #86B262",
"u. c #86B964",
"i. c #8AB269",
"p. c #95B16C",
"a. c #8AA676",
"s. c #8BAC73",
"d. c #9DA974",
"f. c #96B378",
"g. c #A3A877",
"h. c #AEAD7E",
"j. c #747D83",
"k. c #787F84",
"l. c #9D7B82",
"z. c #7A8385",
"x. c #7C8686",
"c. c #7C848A",
"v. c #7E9882",
"b. c #868B84",
"n. c #828A8D",
"m. c #9A8980",
"M. c #879686",
"N. c #919A89",
"B. c #858D92",
"V. c #898B92",
"C. c #869094",
"Z. c #8A9196",
"A. c #8D959B",
"S. c #8E999C",
"D. c #969796",
"F. c #91969B",
"G. c #919A9E",
"H. c #A7838A",
"J. c #AB9888",
"K. c #A58E95",
"L. c #97A685",
"P. c #94B080",
"I. c #9EA398",
"U. c #ABA982",
"Y. c #B3AB83",
"T. c #B9AA88",
"R. c #B7B187",
"E. c #939BA2",
"W. c #999EA3",
"Q. c #B59AA0",
"!. c #9AA1A6",
"~. c #98A2A8",
"^. c #9BA3A9",
"/. c #A1A5A9",
"(. c #A1A9AC",
"). c #A5ACB2",
"_. c #A8AFB3",
"`. c #ACB2B6",
"'. c #ADB4B9",
"]. c #B2B8BB",
"[. c #C59F8B",
"{. c #CA9B97",
"}. c #D99A98",
"|. c #E6989D",
" X c #FB929D",
".X c #C7A38C",
"XX c #C9A88F",
"oX c #C8AB93",
"OX c #D5A395",
"+X c #D6A799",
"@X c #D4AB9A",
"#X c #E0A39B",
"$X c #C79CA4",
"%X c #DA9BA5",
"&X c #EE9EA0",
"*X c #FC96A4",
"=X c #F39EA4",
"-X c #FC9AA4",
";X c #FA9CA8",
":X c #DAA1AA",
">X c #EBA2A1",
",X c #E9A8A5",
"<X c #F3A3A5",
"1X c #FEA1AC",
"2X c #FEA9B4",
"3X c #B6BDC0",
"4X c #BCC4C9",
"5X c #C2C6CB",
"6X c #DEC3C9",
"7X c #C6CDD1",
"8X c #CDD4D8",
"9X c #D3D7DC",
"0X c #D5DADD",
"qX c #E6D6D6",
"wX c #F5D2D7",
"eX c #D7DCE0",
"rX c #D7E0E3",
"tX c #DBE1E5",
"yX c #DEE4E9",
"uX c #E4E9EB",
"iX c #E3E9EC",
"pX c #E6ECF0",
"aX c #EAEFF3",
"sX c #EAF3F5",
"dX c #ECF1F4",
"fX c #EEF5F9",
"gX c #F1F4F6",
"hX c #F1F6FA",
"jX c #F4F9FC",
"kX c #FCFFFF",
/* pixels */
"] ] ] ] ] ] ] ] ] ] W W q ! W ] ] ] ' ] ] ' ' ' ] ] ] ] ] ] ] ] ] ] ] ] ] ] ] ] ' ]  .2.' ' ' ] ' ' ] y.] ] <.<.] ] ' ] ] ' U ] ",
"] ] ] ] ' ] ] ] ] ] ] ] ] ] ] ] ] ] ] ] ] ' ' 2.] ] ] ] ] ] _ ~ ] ] ] ] ] ] ' ' ' ' ] ] ' ' ' ' ' ' ' ] ] <.[ ] [ ] ' ] ' ' ' ] ",
"] ] ] ] ' ' ] ] ' ] ] } ] ]  .] ] ] ] <.] ] ] u.] ] ] ] ] ] W H ] ] _ ' ] ] ' ' ' ] ] ' ' ' ' ' ' ' ' ] U ^ ) ] ] ^ ~ ' ' ] ] ] ",
"] ] ' ] ] ' ' ' ' ' ' ] ' ] ] ] ] ] ] <.<.] ] ] ] ] ] ] ] ] H C ] ] E ~ ] ] ' ] ] ] ] ' ' ' ' ' ' ' ' ' ' ' ' ' ^ ^ ] ' E H A ] ",
"] ] ' ] ] ] ' ' ' U ' ' '  .2.] <.] ] ] _ ~ ] ] ~ ' ] ] ] ] S C ] ] S ] ' ' >.u.] ' ] ' ' ' ' ' ' ' ' ' ' ] ] ^ ~ ' ' ] ] ] _ ] ",
"] ] ] ] <.] ] ] ' ] ] ] ' } } ] ] ] ] ^ _ ] ] ] L ' ] ' ] ] ^ V E ^ H ] ' ' ] ] ' ^ ] ] ' ' ' <.<.>.>.' ' ' ' ' ' ' ] ] { ] ] ] ",
"] ] ] ] y.] ] ] ] ] ] ] ] u.] ] ] ] ' ~ Q ' ] ~ ! ' ' ' ] ] ] A _ ] ] ] ] ' >.^ U ^ ] ' U ' ' ' >.^ ) > >.U ' ' ' ' ] ] { ] ] ] ",
"] ] ] w.y.] ] ] ] <.y.] _ _ ] ] ] ] ] _ ~ U ' W J ' ] ' ] ] ] ] ] ] ] ] <.] ] ] P ~ J U U ] ~ J ! ^ ! G [ ! ' ' ' 2.u.] ] ' _ _ ",
"] ] ] <.] _ ~ ^ ] y.] 2.] _ ] ] ] ] ] ] ] ' ' W H ] ' ' ] ] ] y.] ] ] ' ~ ' ] ^ U W ~ ] ' I _ H Y ^ ~ J G ~ ^ ' { u.' ] ] ' ^ ^ ",
"] ] ] y.] ' / ! ' ] ] ] _ <.] ] ] ] ] ' ] ] ' L H ] ] ] ] ] <.<.] ' ' ' E ' ] ^ ^ H ] ] ; ! ~ 6 8 ! L G - W ^ ~ ' ] ' ] ] ] ' ' ",
"] _ _ ] ] ] ^ / ' ] ] ] ] 8.L.N.Y ] ] ' ' ] ] ] ] ] ] ] ] <.<.] ] ' U ' L ' ^ ] ~ H ^ ' I ! 6 H - ! J - W ' H ' ' ' ] ] ] ] ] ] ",
"] ~ ! ] ] ' ] ] 2.<.] ] 9.I.I.N.M.o.G ! ] *.X.h k k X.X.h *.w.] ] ] U U L ' ' ' ! L ! U ' ' 6 A C H G 4 a.y h h h h g @.+.{ _ _ ",
"] _ _ ] E E ' ] ] <.] w 9 k #.X.4.X.8 ) ! @.l l d d d d i %.w.] ] ] ] ' ^ ] ] ' K U I I [ <.' G : C 4 6 8.e c l l c i v s.' ^ ^ ",
"] ] ] ] E E ' ] ] ] ! Y 9 9 3 9 9 9 G ! J &.l l v v v c i @.+.] ] ] ] ' ^ ] ] ' I ^ J I ^ ' ~ J 7 @ 6 7 &.i n c n n l v s.<.} ' ",
"] ] ] ] _ S ' ' ] ] ] ] ^ ! T T 0 5 5.&.&.C.A.Z.Z.Z.Z.Z.A.C.%.%.5.[ ' ] ' ' _ ' I U J ^ U ' ^ I J w v m B.E.S.S.S.S.E.G.%.g 9.] ",
"] <.] ] _ S ' ] ] ] ] <.<.] } ] ] <.9.d d B.E.G.G.G.G.S.W.Z.v a X.' ] ] ' ' ^ ' U U H ^ ^ ' _ ! J 5.t l B.W.S.S.S.G.!.E.n t 7.y.",
"<.<.] ] ] ] ] ] ] ] ] <.<.<.<.] ] ] 7.l l B.G.S.S.S.S.G.W.Z.n d g 8 : T : & 8 ' ' I J ^ U ' ^ [ [ 8.v N G.)./.(.^.!.W.S.n d 8.y.",
"] <.] ] ] ] ] ] ] ] ] ]  .] <.6.X.#.n.B.B.7XrX0X0XeXeXeXiX7XE.Z.n.g d 7.> & 8 ; > ! I U >.' ) j g n.E.W.0XhXpXsXsX3XG.S.n l 7.] ",
"] ] ] ' ] ] ' ] ] ] ] ]  .] [ &.d d Z.G.W.tXjXfXfXdXdXdXkXrX^.G.C.z i #.~ : = * 5 ^ ' ' ' ] +.d l n.W.^.uXkXfXjXhX].F.A.n z *.] ",
"] ] ] ' ] ' ' ' ' ] <.E Q ] } &.d d Z.S.G.rXfXsXsXsXsXaXjX0X^.W.C.v l k q 5 * = * +.+.w.w.i.6.z z B.E.^.yXjXdXfXsX'.F.A.c z 6.] ",
"] ] ] ] ] ] ] ' ~ ] <.] <.<.} &.l l Z.S.G.rXfXsXsXdXdXaXfXuXeXyX4XS.Z.n.%.%.$.$.$.%.$.$.$.$.N l z B.E./.iXhXdXfXsX`.F.A.l c =.' ",
"] ] <.] ] ] ] ] u.] ] ] f.i.s.&.l l Z.F.W.tXfXsXsXdXdXdXaXdXjXkX8XW.E.z.i i i i i i i i i i p i l Z.!.).uXfXhXkXhX_.S.Z.l n *.} ",
"] ] <.] ] ] ] ]  .2.] P.u.2.s.%.d l Z.S.W.tXhXdXdXdXdXdXaXaXpXdX5XG.G.c.c c c n n n n N N N N j.j.B.B.^.pXhXtX8X5X^.E.C.l M *.2.",
" .] ] ] ] ] _  . .} 8.+./ } r.%.d z A.S.W.tXhXdXdXdXdXdXhX0X`.).^.E.E.S.S.S.S.S.S.S.S.S.G.G.S.E.G.j.i B.sXjX4XZ.G.E.W.B.i M *.] ",
"2.] <.] ' ' H ] { } ! w R O.r.$.d l S.G.!.yXhXdXdXdXdXfXkX8XF.B.S.E.E.W.W.W.W.W.W.W.W.W.W.W.E.W.W.n 2 Z.kXkX4XZ.W.W.!.n.t M -. .",
"] ] ] ] ' ' J ' { _ E ~ ' } <.@.i s S.G.^.iXhXsXaXaXaXpXgX7XW.S.E.E.E.E.E.E.E.E.E.E.E.E.E.E.E.W.E.n.j.Z.].'.F.z.x.z.z.M.*...<.2.",
"y.] <.] ' ' ~ ~ ~ ~ E ' } ] ^ 3.a.a.n.j.c.`.3X].'.'.'.`.'.(.E.G.E.E.E.E.E.E.E.E.E.E.G.E.E.E.E.E.E.E.!.n.a d l l d d t *.~ ! ]  .",
" .] ] ] ' ' ~ W ^ ' W ] ] ' ' _ ' H N i l B.F.Z.Z.Z.S.S.S.S.G.E.E.E.E.E.E.E.E.S.W.)._.^.E.E.E.E.E.E.!.B.z v l v v v l T [ ' ] ] ",
"] ] ] <.] ] ] ' ] ' ~ ' ] W E S H C m s M S.W.G.G.S.S.S.S.S.G.G.E.E.E.E.E.E.E.W.B.v d c.W.W.E.E.E.E.^.z o < 5.3.o.o.+.[ <.~ ] ] ",
"<.] ] ] _ _ _ ] ] ] ] ] ] _ _ S E H ....6.x.k.j.j.j.j.j.N c.E.E.E.E.E.E.E.E.E._.d .   2 ^.E.E.E.E.E.).1   X w.' ^ E W } <.! ' ] ",
"] ] ] _ E S S ] ] ] ] ] ' ' ] ] ] ] ] <.[ m d l l l z l t j.^.^.E.E.E.E.E.E.E._.2     2 ^.W.G.E.E.G.(.1 . o -.[ } S ^ ] { ] ] ] ",
"] ] ] ] ] ] ] ] ] ] ] ] ' ' ] ] ] ] i.f.s.k d n M n v h @.x.S.S.S.E.E.E.E.E.E.(.M < , N W.E.E.E.E.E.W.N a M @.X.3.] ] ] ] ] ] ] ",
"] ] ] <.e.1.] ] ' ]  .2.' ' ' ] ' ' ] y.[ / D.D.D.b.k -.w.9.v n B.W.E.E.E.E.E.E.E.!.^.W.E.E.E.E.E.E.G.^.(.W.l t *.] ] ] ] ] ] ] ",
"] ] <.T.+XT.1.' ' ' ] ] ' ' ' ' ' ' ' ] ] D.N.D.D.D.X.] ] a.a d B.W.E.W.!.W.E.E.W.^.!.E.E.E.E.E.E.E.E.W.E.S.n l L.e.1.] ] ] _ _ ",
"] ] w.,X*XOX1.' ' ] ] ' ' ' ' ' ' ' ' ] ' w b.b.4.g w ' ] a.d l B.W.G.Z.B.B.S.E.E.G.S.E.E.E.E.E.E.E.E.E.G.S.C.Z.Q.,XXX1.] ] ~ _ ",
"] ] ! T.+XY.t.p.e.] ] ' ' ' ' ' ' ' ' ' ' ^ Y T 5 ! ] ] C #.l z B.^.S.N i j.G.W.W.E.W.W.W.W.W.W.W.W.^.^.!.!.^.^.$X*X}.1.] ] Q _ ",
"] ] H <.<.,.oX,XoXe.] ' ' ' ' ' ' ' ' ' ' ] ] ^ ~ ' ' ] ] 8.d z B.^.A.c i j.E.W.W.E.E.E.E.G.G.S.S.S.S.S.A.Z.C.C.J.T.g.>.] ] W _ ",
"E ^ H ] ' :.OX*XOXt.] ] ' ' ' <.<.>.>.' ' ' ' ' ' ' ] ] ] 6.d z B.^.S.c.z.c.c.c.c.c.z.z.j.j.j.N N n n n c v l c 3.' ] ' ] ] ' _ ",
"_ ] ] ] ] :.OX-XOXt.] ' U ^ ' ' >.R +.> >.U ' ' ' ' ] ] ] 8.a z B.W.W.W.^.B.d i i i t r e i l z i r t t t i i d +.' ' ' ] ] ] _ ",
"] ] ] ] <.>.OX-XOX3.J U U ' > ; 0 T G 5 +.R ' ' ' 2.u.] ] 8.a z Z.W.W.E.^.B.l l z v n M j.N z z %.7.7.7.7.9.8.8./ ' ] ' ] ] ] ] ",
"] ] ] ' ~ :.}. XOX3.~ ] ^ 0 T 0 0 0 ; & 3 5 ^ ' { u.' ] ] 8.s v Z.W.E.E.E.A.n.B.`.7X8X8XuX].l d s.] } ] ] ' ' W H ] ' ' ] ] ] y.",
"] ' ' ' E [ R.oXY.3.d.p.> = ; * * = % # + $ ~ ^ ' ] ' ] ] 8.i v A.W.E.E.E.E.G.W.9XkXjXhXkX5Xl l s.] ] ' ] ] ' L H ] ] ] ] ] <.<.",
"] ' U ' L ' ;.{ w.XX=X.X( = % * # % % 5 R ^ ~ ' ^ ' ] ] ] *.a c A.W.E.E.E.E.S.W.8XhXdXaXkX3Xl z +.] ] ' ' ] ] ] ] ] ] ] ] <.2.] ",
"] ] U U L ' ' ' 3.OX*X.X,.U G G G ~ ! J ' ! ^ ' ' ] w.! / &.c.c.S.E.E.E.E.W.S.W.8XfXdXaXkX].d v 9.o.G ! ] ] ] ] ] ] ] ] ] ] ] ] ",
"] ] ] ' ^ ] ] ^ ;.+X-X.X,.<.I G G H H Y W W ' ' ' ' o.d v B.!.W.E.E.S.S.S.A.n.S.8XfXsXaXkX`.a n 4.k q ) ! ! <.<.] ] _ _ ] ^ ] ] ",
"] ] ] ' ^ ] ] ' 3.+X-X.X;.' L G J 8 G H G ^ ] ] ' ] o.d v C.^.W.E.G.G.W.G.W.W.).eXdXsXaXkX_.i z m.q.5.! J ~ w.<.] ] E E ] S W ] ",
"] ] ] ] ' ' _ ' 3.+X*X.X;.' ^ I W 5 G G Y ~ ' ' ' ] o.l v B.W.E.E.S.Q.%X:X6XyXiXaXdXdXaXjX(.u x }.;XJ.Y Y W ] ' ] ] ] A ] C C ] ",
"' ' ] ] ' ' ^ ' t.+X*X.X;.' _ ! J J ! ^ ^ ~ ] ' ' ' X.l c C.W.E.E.A.Q.;X1XwXjXfXsXdXaXaXjX/.u x }.-XY.^ ^ ^ ' ] ] ] ] H H _ - ] ",
"! ! : T : & 8 ' t.+X*X.X;.' ' ' ' ' ] ] ' ' ] ] ' ' #.i c Z.W.E.E.S.Q.-X;XwXfXdXaXdXaXaXhX^.u x |.-XU.] ] ] ] ]  .] ] ' V E 4 ] ",
"! ; 7 T > & 8 ; R +X|.XX1.' ] ' ' ] ] _ ] 2.i.s.r.s.M.z.n.G.W.E.E.S.$X-X1XwXfXdXdXdXaXdXgXW.u x |.-XY.' <.<.] ] ] ] ] ' C H ] ! ",
"O # * : ~ : = * w g.h.g.d.g.d.' ' ] _ _  .s.r.M.l d B.^.W.W.E.E.W.W.$X-X1XwXfXaXaXdXaXdXdXG.u B [..Xt.' ] y.p.<.] ]  .] E - G ^ ",
"> + O # 5 * + % # ! W ,.OX*X@X] ' ' ~ Q O.-.-.v.p l B.!.E.E.E.G.S.A.Q.%X:XqXhXdXaXaXaXfXdXF.e v.e.,.] ] ] ] ] ] ] ] 2.] 2.C ! ~ ",
"~ W Y ~ ~ ] ! ~ ' ] W e.OX*X@X<.] { Q S A ..s.=.l c Z.W.E.G.!.A.N z n.F.W.8XhXdXaXaXaXfXaXZ.e M.<. ._ ] ] ] ] ] ' ] ] {  .] ] ' ",
"~ ~ ~ ] ] ] ] w.L.M.+.e.OX-X@X~ ~ } | S C ` | =.l c Z.W.E.G.!.B.v l n.S.!.9XhXdXdXdXdXhXuXZ.e N./ _ W _ ] ] ] ] ' ] } ] ]  .] ] ",
"] ] ] ' ] ] P.I.I.D.N.0.OX-X@X~ A ] | C S ` ` =.l c Z.W.E.E.!.B.z l n.S.!.0XhXdXaXaXpXhXiXB.e M.H E H ] ] E ] ' ' ' ] ] ] ] ] ] ",
"y.s.i.] ] } a.N.I.N.4.;.OX-X@X] E S | A Q O.E &.l c A.W.E.E.!.B.z l n.A.^.eXjXhXjXjXjXkXaXn.2 M.R ] H ] ] E ] ~ ^ ' ' ' ] ] ] <.",
"] i.i.] ] { 3.3.+.o.G 3.OX-XoX' ] C | A S O.{ &.a c Z.!.W.W.^.B.p p n.D./.0XuXyXtX0X9X9X5XK.l.J.0.g.R ] ] A ' _ ' ' ^ U ' ] ] ] ",
"] ] ] ]  .] _ ^ ^ ' ' e.#X-X@X' _ 4 W Z S O.` #.i v B.S.Z.Z.B.V.H.H.{.%X$XD.n.c.N n z r x %X2X1X-X=X+.L } S ' _ ] ' ] ' ' ] ] ] ",
"] ] ] { ] ] ] ] ] ] _ ) T..XU.,.1.R R R 3.0.d.5.T T b n z z i H.2X2X1X2X%Xf 2 e t a l p m }.>X>X>X@X) ' G A ' ' ] ^ ] ] ] ] ] ] ",
"] 2.] ] ] ] ] ] H _ _ A [ ;.e.+X|.&X=X;X;X-X<X3.~ T g d d l i H.<X<X>X,X{.b.z.x.b.b.b.=.L.Y.U.g.g.3.6 C A 6 ' ] ' ] ] E W E ] ] ",
" . .] ] ] ] ] ] H E ] _ S S e.=X-X-X=X=X>X=X+Xr.W Y &.b.b.b.=.U.R.Y.h.h.d.r.-.-.[ ) ~ ' ] Q W S H C 6 A ] A A ] ] ' ] _ ' S E ] ",
" .] ] ] ] _ E E W C _ _ V D / T.@XoXoXT.Y.Y.f.<.^ W / -.w.! ' ] <.] ] ] _ _ _ ] ] ] ] ] ] _ _ S E H C C ] ] _ ] ] ] ] ] ] ] ] ] ",
"] ] ] ] _ H E E ' A S _ 4 H 6 T <.] ] ] ^ ]  .] ] S ^ ] { ] ] ] ] ] ] _ E S S ] ] ] ] ] ' ' ] ] ] ] ] ] ] ] ] ] w.] ] ] ] ] >.] ",
"] ] ] ] ] ] ] ] ] E A A * 7 6 G ] ] ' ] ] ]  .] ] ] ] ] ] ] ] ] ] ] ] ] ] ] ] ] ] ] ] ] ' ' ] ] ] ] i.<.<.] ] <.] ] <.' ] ' >.] "
};
