/* XPM */
static char *a34f1a3bb8b24fa0b743ece7e47eba94rtObodt05WHOQcBg[] = {
/* columns rows colors chars-per-pixel */
"64 64 256 2 ",
"   c #010804",
".  c #130F0E",
"X  c #00140B",
"o  c #031815",
"O  c #2E110A",
"+  c #361B16",
"@  c #092313",
"#  c #192618",
"$  c #2F271C",
"%  c #37241A",
"&  c #3C241C",
"*  c #101D23",
"=  c #2B1D25",
"-  c #0E2526",
";  c #192823",
":  c #31332A",
">  c #461114",
",  c #43291D",
"<  c #4E341F",
"1  c #481A26",
"2  c #442C22",
"3  c #482928",
"4  c #522C2B",
"5  c #4C3326",
"6  c #46332A",
"7  c #4C342A",
"8  c #543427",
"9  c #52352C",
"0  c #543A2E",
"q  c #5A3C2D",
"w  c #4E2C36",
"e  c #572A3A",
"r  c #4C3834",
"t  c #563537",
"y  c #553B34",
"u  c #593D35",
"i  c #5B3C3B",
"p  c #642D3E",
"a  c #653D36",
"s  c #354527",
"d  c #4F472D",
"f  c #5C4235",
"g  c #584736",
"h  c #5C433A",
"j  c #654637",
"k  c #6E4C37",
"l  c #61453A",
"z  c #654B3D",
"x  c #72533B",
"c  c #6E6629",
"v  c #5C2D44",
"b  c #48394A",
"n  c #5C3A41",
"m  c #593844",
"M  c #693446",
"N  c #673748",
"B  c #6D334B",
"V  c #763957",
"C  c #7E3F65",
"Z  c #3C4743",
"A  c #5A4544",
"S  c #534C49",
"D  c #624343",
"F  c #644B43",
"G  c #6A4D42",
"H  c #664548",
"J  c #6C4B4A",
"K  c #6C5245",
"L  c #6A5449",
"P  c #735545",
"I  c #73544C",
"U  c #745B4D",
"Y  c #7A5948",
"T  c #774358",
"R  c #6D5052",
"E  c #765A54",
"W  c #7A5C52",
"Q  c #53644E",
"!  c #7B604E",
"~  c #6B6E50",
"^  c #7D6354",
"/  c #7A6756",
"(  c #744E64",
")  c #745070",
"_  c #7C6261",
"`  c #84504F",
"'  c #835B56",
"]  c #A85846",
"[  c #86654C",
"{  c #826655",
"}  c #846855",
"|  c #8C6A53",
" . c #82665A",
".. c #856C5C",
"X. c #8A6D5C",
"o. c #956C54",
"O. c #87705C",
"+. c #8A725E",
"@. c #96755B",
"#. c #93745C",
"$. c #9A7C5D",
"%. c #AF654A",
"&. c #B36A53",
"*. c #B9765A",
"=. c #874964",
"-. c #985170",
";. c #A14F6C",
":. c #A6567B",
">. c #856C64",
",. c #886B67",
"<. c #946C6B",
"1. c #8C7363",
"2. c #8C7368",
"3. c #937561",
"4. c #967967",
"5. c #9B7D63",
"6. c #967B77",
"7. c #A9756B",
"8. c #AD697B",
"9. c #BA7A77",
"0. c #C07D5D",
"q. c #C47977",
"w. c #64943A",
"e. c #6AB848",
"r. c #8F9A56",
"t. c #9D8267",
"y. c #9C8379",
"u. c #A78665",
"i. c #A3836A",
"p. c #AB8B6B",
"a. c #B38D6A",
"s. c #B7936D",
"d. c #A88876",
"f. c #B78478",
"g. c #BC8B7E",
"h. c #A79978",
"j. c #B99775",
"k. c #C4805E",
"l. c #C88766",
"z. c #C6897B",
"x. c #CE9170",
"c. c #C69A74",
"v. c #D59974",
"b. c #D59875",
"n. c #D59D7B",
"m. c #C8A57A",
"M. c #D4A97E",
"N. c #CDB17C",
"B. c #A5D16C",
"V. c #93598A",
"C. c #AE568D",
"Z. c #B46F8B",
"A. c #B859AC",
"S. c #B269A5",
"D. c #C55C8C",
"F. c #C27682",
"G. c #E97C8B",
"H. c #E05FA4",
"J. c #D666AF",
"K. c #E767A8",
"L. c #F86AB8",
"P. c #F071B3",
"I. c #9E8882",
"U. c #9E9383",
"Y. c #A48988",
"T. c #A9958A",
"R. c #B59086",
"E. c #AC9493",
"W. c #B59998",
"Q. c #9DB782",
"!. c #BAA390",
"~. c #BD8BA7",
"^. c #BBA5A6",
"/. c #C78A83",
"(. c #C79688",
"). c #D89688",
"_. c #D19391",
"`. c #EC8D95",
"'. c #E79C97",
"]. c #CBAB83",
"[. c #C8A987",
"{. c #D9A481",
"}. c #D2AC83",
"|. c #D8B388",
" X c #C4A59B",
".X c #D9AA9C",
"XX c #D0B493",
"oX c #E6AE95",
"OX c #E4B898",
"+X c #C888B2",
"@X c #EC8EB3",
"#X c #C5AAA7",
"$X c #CFB0A3",
"%X c #D8B9A8",
"&X c #C7AEB0",
"*X c #CFB3B5",
"=X c #D0B4B7",
"-X c #D6BBB2",
";X c #D1B7B9",
":X c #D3B9BB",
">X c #D9BCBE",
",X c #F9A7A8",
"<X c #E6BAA6",
"1X c #EEB4AE",
"2X c #ACDA83",
"3X c #D0DF95",
"4X c #EBC595",
"5X c #F4CB93",
"6X c #CDD6A9",
"7X c #DDC8B5",
"8X c #E7C3A6",
"9X c #E5C9B5",
"0X c #F6C9BC",
"qX c #F0D6B5",
"wX c #F8D6BA",
"eX c #F3E1B6",
"rX c #D7BEC0",
"tX c #DABEC1",
"yX c #FCA5C8",
"uX c #FFB3D2",
"iX c #DDC1C4",
"pX c #DFC3C8",
"aX c #D8D5C8",
"sX c #E2C6CA",
"dX c #E5C6C9",
"fX c #E5C9CC",
"gX c #F9CCC2",
"hX c #ECD6C4",
"jX c #F2D9C3",
"kX c #F9D8C7",
"lX c #F3DECA",
"zX c #E5CBD0",
"xX c #EACED2",
"cX c #FFC7D7",
"vX c #EDD2D5",
"bX c #F7D7D8",
"nX c #CFE2C0",
"mX c #ECE3CA",
"MX c #F4E1CB",
"NX c #FBE6C8",
"BX c #FAE4CE",
"VX c #F6E5D1",
"CX c #FBE5D2",
"ZX c #F6E9D3",
"AX c #F1ECD0",
"SX c #FCEBD4",
"DX c #FEEDDA",
"FX c #FEF1D4",
"GX c #FFF3DC",
"HX c #FFCEE6",
"JX c #FDD9E3",
"KX c #FAEBE5",
"LX c #FEF5E3",
"PX c #FFFBE3",
"IX c #FFFEEB",
"UX c #FEFDF9",
/* pixels */
":X;X;X;X;X;X;X;X;X=X*X*X*X*XpXzXsXzXiX;X>X:X:X;X>XtXtXtXtXtXtXtXtXrXtXtXtXtXtX>X;X:X>X:X>XfXxXfXxXfX*X&X*X*X=X:X;X;X;X;X;X;X;X>X",
"*X*X*X*X*X*X*X=XiX2.u F D D ,.6.6.,.W.xXsX>X*X*X;X;X;X;X;X;X;X;X;X;X;X;X:X:X:X;X*X;XiXsXtXI.6.6.6.6.F h F y Y.sX*X*X*X*X*X*X*X*X",
";X*X*X*X*X*X*X=XsX_ % u f l q % & + h >.J E.xXvXY.r F F F F F F F F F F F F u W.JX;X_ E E 2 + & & 2 f h y % 6.fX*X*X*X*X*X*X*X;X",
";X*X*X*X*X*X*X=XsX,.2 / >...3.5.l z 0 + O >.iXtX,.+ 5 5 5 5 5 5 5 5 5 5 5 5 % y.xX^.6 + 2 u l q X.t...1.G & y.fX*X*X*X*X*X*X*X;X",
";X*X*X*X*X*X*X=XsX,.2 / 4.d ; !.}.s.+.P ^ F y y l  . ./ ^ ^  .^ W ^  .^ ^  ...F u F U K x u.a.m.j.: ~ 4.F & 6.fX*X*X*X*X*X*X*X;X",
";X*X*X*X*X*X*X=XpX>.2 / 1.d X @ / }.m.s.j.X.z K ^ 1.X.X.5.3.{ 3.5.3.X.X.X...X.F P u.p.i.p.c.|./ # o 6 X.F & 6.fX*X*X*X*X*X*X*X;X",
";X*X*X*X*X*X*X=XsX,.& >.(.7.T : o S j.j.a.u.5.i.5.#.$.$.s.5.[ j.|.p.} i.5.} } ^ 4.m.s.c.c.s.s o = N <._.U % Z.fX*X*X*X*X*X*X*X:X",
";X*X*X*X*X*X=X;XsX,.+ 4.cXuX@XD.T * X h.c.a.s.c.p.| s.j.Y } ].].a.$.@.#.u.$.| Y } i.a.c.p.; o V H.P.yXcX .+ 6.fX*X*X*X*X*X*X*X:X",
";X*X*X*X*X*X=X;XfXE O d.JXuX@XK.K.=.# $ $.m.s.a.a.j.c.j.j Y kXkXc.s.u.j o.[.9X3.P X.m.t.# * C P.L.P.uXJX,.. ,.xX*X*X*X*X*X*X*X:X",
";X*X*X*X*X*X*X*X>XE.E y _.HX@XK.L.D.N h j.M.j.[ i.wX}.m.j ! CXDX4X4Xm.8 | 8XPX[.Y W i.5.L T D.P.K.P.uX Xi F W.iX*X*X*X*X*X*X*X:X",
":X*X*X*X*X*X*X*X*XbX#X  <.HXyXK.L.D.9 u.}.j.p.[ 4.kX].u.j { qXqX4X5XM.8 | OXeX4X| z } i.5.4 C.P.H.yXcX,.+ #XvX*X*X*X*X*X*X*X*X:X",
";X*X*X*X*X*X*X*X*XfXT.. Z.JXyXK.K.-.O u.}.u.@.Y i.wXs.! u } 4XOXM.|.s.0 Y a.OX4X[ 9 ..3.X.& =.K.K.yXHXZ.+ Y.fX=X=X=X=X=X=X=X=X:X",
";X*X*X*X*X*X*X*X*XsXW.+ 9.HXyXP.C.T f s.M.5.#.l | OX5.^ f P s.p.@.@.#.K y P 5.i.[ j ^ +.X.f 8 C.L.uXcXZ.t E.sX=X=X=X=X=X=X=X=X:X",
";X*X*X*X*X*X*X*X*X=XiXI.: R @XL.-.n p.M.c.$.3.0 a 7.Y z u G } ^ } } 1.W 9 P { ^ +.} K +.X.u 2 ;.L.@XR ; W.sX=X=X=X=X=X=X=X=X=X:X",
";X*X*X*X*X*X*X*X*X*XtX-X@   =.Z.N h a.M.s.X.1.y q @.U f 9 G +.X.X.X.1.U 9 P X.X.X.} 8 P 1.f 7 N ;.H # o ^.dX*X=X=X=X=X=X=X=X=X:X",
";X*X*X*X*X*X*X*X*X*X>X%X@ X r 9 K i.M.|.p.X.1.0 5 } ^ l 0 f U ..X.X.1.U 9 G ! X.X. .8 K 1.f y y q r # # ^.sX;X=X=X=X=X=X*X=X=X:X",
";X*X*X*X*X*X*X*X*X*X>X=X: # 0 & P g.|.4Xu.U X.<.' K ^ l y u G { ..X.1.U y z U +.+.X.f K 1.u 0 q 0 u $ : ^.sX=X=X=X=X=X=X=X=X=X:X",
";X*X*X*X*X*X*X=X*X*X;XtX#Xr 5 9 P i.}.|.5.z 9 ).9.5  .U y u l F ^ ....O. .q z 1.1... .....U f 0 u 7 r ^.tX;X=X=X=X=X=X=X=X=X=X:X",
";X*X*X*X*X*X*X=X=X*X*XiX*Xr 0 1. .l #.p.! h o.'.).` L ^ U l y u G  .+.+.O.j f U +.........1.z 9 u 7 r *XiX*X=X=X=X*X=X=X=X=X=X:X",
";X*X*X*X*X*X*X=X*X*X*XtX#X6 y y...9 ^ 5.z a ).kX0X7.d ^ >.z y f f U 1.1...1.z 5 U .... .....l y u 7 r #XtX=X=X=X=X*X=X=X=X=X*X:X",
";X*X*X*X*X*X*X=X*X*X*XtX#X6 y 4. .0  .W f 7.<XFXGXoX] q /  .F y u u L 1.2.1...z 0 G ........l y u 7 6 ^.tX*X*X*X=X*X=X=X=X=X*X:X",
";X*X*X*X*X*X*X=X=X*X*X=XiXY.2 z } q ^ L a q.SXPXPXkX'.` z z h 9 9 9 y z U 1.2.L 8 u ^ X.....l y y 5 6.tX;X*X*X*X=X*X=X=X=X=X=X:X",
";X*X*X=X=X=X=X=X=X*X*X*XsX^.2 0 ..^ U z 7.'.9XaXlXPXCX,X7.8 a I W ^ ' P P / 4.P 5 9 z ......l 9 y 5 W.fX*X*X*X*X=X=X=X=X=X=X=X:X",
";X*X*X=X=X=X=X=X*X*X*X*XsXW.5 h 1.4.W j p.-X:   Q AXFXBXBX1X/._.kXjX/.'.d.  / | 5 7 h +.X...h 7 0 2 W.fX*X*X*X*X*X;X=X=X=X=X=X:X",
";X*X=X=X=X=X=X=X=X*X*X=XfXE.7 K 1.1.h u { : o o o ; #XAXBXCXkXkXSXGXkX:   o X $ F 9 l X.+.X.l 2 8 2 Y.fX=X*X*X*X*X=X=X=X=X=X=X:X",
":X=X=X=X=X=X=X=X=X=X=X>X^.F K ^ >.1.h & $ y r S r =   p.SXZXBXMXMXPXS $ R D J :   % z 1.O. .W f.f.P 7 #XtX*X*X*X*X*X=X=X=X*X=X:X",
":X*X=X=X=X=X=X=X=X=X>X*XA K U ! ..1.G 6 A K : X : g + [.GXMXlXlXMXDXy.<.' # 2 g Z A G X...^ 1.0X.XY g L &X>X*X*X*X*X=X=X=X*X=X;X",
":X=X=X=X=X=X=X=X=X=XtX&X6 ^ U U >.1.f >.KXQ w.X ~ t.>XDXBXMXlXlXlXMXUX>.s s @ ~ UX#Xz  ...^ 4.wX_.l U y #XtX*X*X*X*X=X*X=X=X*X;X",
":X=X*X=X=X=X=X=X=X=XtX&Xh K K U 1.1.f ' mXe.B.w.6XKXUXKXjXMXMXlXMXMXLX+.c r.r.6XUXT.z ....^ 3.kX_.y 7 f &XtX*X*X*X*X=X=X=X*X*X;X",
":X=X=X=X=X=X=X=X=X=X;X:XW.I 2 F  .1.P t d e.2XB.nXUXT.7XSXMXMXMXMXBXPX| d B.6XaXQ.L i >...{ 4.<X4.8 & 6.pX;X*X*X*X*X*X*X*X*X*X;X",
":X=X*X*X=X=X=X=X=X=X*X;XxX6.& y 9 U h I R.XXX.I U R.%XlXVXMXMXMXMXMXZX9X(.k 6.U.d 6.I X.+... .u r y , T.fX*X*X*X*X*X*X*X*X*X*X;X",
";X*X*X*X=X=X=X=X=X=X=X;XzX6.& h { u , | 1X,X`.`.'.<X0XVXZXMXMXMXMXBXjXkXgX'.1XkX9X<.' { ..K 7 9 u u , Y.sX*X*X*X*X*X*X*X*X*X*X;X",
";X*X*X*X=X*X*XtXtX*X;XtXfX6.% F 1.f ' F.,X`.G.G.`.1X<X0XkXkXCXVXlXVX0X,X,X,X1XCXDX$Xq 5 f K y u f u 2 Y.fX*X*X*X*X*X*X*X*X*X*X;X",
";X*X*X*X*X=X=X*X*X;X=X*XfX6.% F O.f  .<.9.`.G.`.1XkX0XgXkXbX(.%XSXMXjX0XgX0XkXMXDXjXy F ../ f u u u 2 Y.fX=X*X*X*X*X*X*X*X*X*X;X",
";X*X*X*X*X>XxX: : KXW.  ^.W.% F X.f  .U 2 '.,XgXSXVXVXlXVXIXqXjXIXGXMXVXVXVXMXlXDXhXu ^ 4./ u u u u , I.fX=X*X*X*X*X*X*X*X*X*X;X",
";X*X*X*X;X*X#Xg d -XU.$ ^.y.+ F X.h ..W 3 gXLXVXMXlXlXVXhXR.%X9XR.!.MXMXlXMXMXlXDXlXf U 1.^ u u u u , I.fX=X*X*X*X*X*X*X*X*X*X;X",
";X*X*X*XiXW.f |.OX5 Y wXM.Y 2 z +.f  .^ 7 -XIXVXlXlXlXFX9Xk &.q.` g.BXBXlXlXBXFXPX9Xy U 1...u y u u , I.fX=X*X=X*X*X*X*X*X*X*X;X",
";X*X*X*X=X>X#X$ $ :.=.. d <X2.7 1.0 F 1.W 4 ' LXIXPXVXlXlXbXgX0XbXLXMXlXMXGXSXlX9X8 2 ..1./ u y u u , I.fX*X*X=X*X*X*X*X*X*X*X;X",
";X*X*X*X*XtXtXS o * * . R JX6.5 3.9 l 4...1 +  X7X%XBXFXSXFXZXSXVXlXBXSXSXmXR.1 e 1 r 1...f y u u u + E.bX*X*X*X*X*X*X*X*X*X*X;X",
";X*X*X*X*X*X;XxXE.X - #XdXxX,.7 3.9 F 1.{ m v > O O  XLXvXlXMXMXMXMXlXDXhX8 O e e e y 1.X.u u u y h ^ ^ E.tX*X*X*X*X*X*X*X*X*X;X",
";X*X*X*X*X*X*X:X>X&X*X>X;XvX,., +.0 F 1.^ e v v v p 3 V S.+XLXDXFXDX+XS.e e p B M e y 1...u y u r h !.< _ xX*X*X*X*X*X*X*X*X*X;X",
";X*X*X*X*X*X*X*X=XtX>X=X;X:X2.z #.7 F 1. .H v M B B 1 V J.S.~.~.~.S.A.A.v p B M M e u +...u y u y h d.5 >.xX*X*X*X*X*X*X*X*X*X;X",
";X*X*X*X*X*X*X*X=X=X=X=XiXF Y |.$.6 F 1.O.E v v M M B m S C.C.C.C.C.V.( T M M M M e u 1...u y u y h p.$.u W.vX*X*X*X*X*X*X*X*X;X",
";X*X*X=X=X=X*X*X=X=X=X;XfXA x M.$.5 F +.X.E v v N M V =   ) C.V.V.S.b   w B M M M e u 1.X.u y u y f 3.}.x W *X=X=X*X*X*X*X*X*X;X",
":X=X=X=X=X=X=X*X*X*X*X>XiXh x M.5.6 F 1.X.I v v M N B = X - - * * - o X w B M M M w u 1...u y u r u ^ p.m.q A >X;X*X*X*X*X*X*X;X",
":X=X=X=X=X=X*X*X*X*X:XiXH x j.].$.O 2 +.X.I v v e e V =.b o o o o o o b -.B e e B N y O. .y 6 r y u L u.].8 D zX:X*X*X*X*X*X*X;X",
":X=X=X*X=X*X*X*X*X>X&XR P c.|.| j T.>.2 ^ E V V e p =.Z.:.( ( ( ( ( ( Z.C.=.T V -.=.u / U i u F W 7 f $.m.p.P <.iX;X*X*X*X*X*X;X",
":X=X*X*X=X*X*X*X*XsX:X+ #.|.s.j F UXIXd.U J M =..X.X'.8.-.:.:.:.C.C.:.-.8.Z./.Z.C.=.h / K <.F.'..XF u } s.|.[ 8 *X>X=X*X*X*X*X;X",
":X=X=X=X=X*X*X*X>X;XI.l #.j.q y.IXlXIXMXz P 9.(.1XDXkX_.8.8.8.8.8.8.8.8./.f.9.F.Z.-.F ! K 7.'.<XSXVX^ , { j.].x 0 tXtX*X*X*X*X;X",
":X=X=X=X=X=X*X*XsXY.9 j.j.j 2.VXLXBXSXhX4.Y .X<XR.VXCXjX)./.z.z./.z./.(././.R.).7.W  .U K 9.).9XFXPX7XE y #.}.| j W.=X;X*X*X*X;X",
":X=X=X=X=X=X*XvXY.0 s.M.[ + #XIXlXMXMXDXlX4.3.3.d.VXSXVXBX%X9.z.(.z.g.g.g.g.f.(.5.! ^ F | z.OXSXBXMXIX-X2 F p.}.a.5 W.fX*X*X*X;X",
":X=X=X=X=X*X>X>X>.q |.|.Y + #XPXMXMXMXMXFX9Xz j y.SXVXMXSXSX%Xf.(.R.g.f.f.g. X3.{  .y X.).z.9XFXlXMXPX$X3 t X.}.j.< Y.iX=X*X*X;X",
":X*X=X=X*XtXbXE j [.p.5.G 2  XPXmXMXMXlXSXjXW u 6.DXMXlXlXSXSX%Xg.f.f..X%X<XDX4.U W l g.)./.hXSXMXMXPX$X3 t l @.j.i.q Y.JX*X*X:X",
":X*X=X*XiX*X2.Y p.[.E t i 3  XPXmXMXMXMXMXDX7Xi I y.lXVXMXMXBXMX9X.X%XBXGXlXi...^ G f././.9XSXMXMXMXPX$X3 i n J #.[.| U Y.tX=X:X",
":X*X*X=XsX6., j.}.#.E A i 3  XPXMXMXMXMXlXSXlX<.4 G VXSXMXMXlXMXSXSXSXBXSXlX!.L G 9./.9.%XGXMXMXMXMXPX$X3 t n J Y 5.XX[ 2 &XsX*X",
":X*X*XfX,.z j.m.u.Y I n i 3  XPXmXMXMXMXMXZXlXg.O.[.qXBXMXMXMXMXMXMXMXMXMXBXGX/ k /.z.<XBXBXMXMXMXMXPX$X3 i i J E E u.[.o.F >XfX",
":X*X=XpXE k |.p.[ U I n i 3 %XIXmXMXMXMXMXZXhX/.FX3Xh.VXMXMXMXlXMXMXMXMXCXqXr.3X4Xq.q.jXGXlXMXMXMXlXIX7X3 i i N R J W !.].a.A &X",
";X*XbXY.u s.].u.P I D n n w 6.SXBXMXMXMXMXSXkXz.n.8XeXZXVXVXVXVXVXVXVXVXSXMX6X3XN.&.9.hXSXMXMXMXMXZXZX6.w n n t D H H M.[.]., y.",
";XsXW.E | m.s.{ I I i n n t u 9XSXMXMXMXZXjX).&.] ).SXjXjXjXjXjXjXjXjXjXjXkXFXN.o.] *.qXDXZXBXMXMXGX9X3 t n n n m D n ' ].[.j.U ",
";XiXW k [.m.o.G I n n n n w G 8XSXMXlXBXIX%X%.&.l.n.n.n.n.n.M.M.{.{.{.{.n.n.n.n.l.&.%.z.DXMXjXMXVXNX<XN w n n n n N n n u.].].! ",
"xXR Y m.c.5.I E D t n n n w J 8XNXVXSX%X9X.X&.x.b.b.x.x.b.l.*.l.l.l.0.0.x.b.x.b.n.x.%.*.qXc.OXDXZXwXoXD w n n m N n n n J c.[.j.",
"E.^ $.].p.U E H t n n n n w J 8XNXVXGX[.&.l.x.n.b.b.b.b.n.x.*.&.&.&.*.l.x.n.b.b.b.b.b.l.l.k.<XGXVXwXOXD w n m n n n m m I ^ [.}.",
", j.OXp.[ W J i i n n n n w J 8XNXVXDX<Xl.b.b.b.b.b.b.b.b.n.n.x.x.x.x.n.b.b.b.b.b.b.n.b.x.l.<XFXVXwXOXD w n m i n m m i D I X.p.",
"^ j.}.5.^ E J A H H H H H m I 8XNXVXDX8Xx.n.n.n.n.n.n.n.n.n.n.{.{.{.M.n.n.n.n.n.n.n.n.n.n.x.8XGXVXkX<XI i H H H H D D N D E 2.i."
};
