/* XPM */
static char *eedddbbbadee4a4791aad7e6ee3b1784J5FYh3k69l8Sm6Xn[] = {
/* columns rows colors chars-per-pixel */
"64 64 238 2 ",
"   c #341C0C",
".  c #3A210D",
"X  c #54321A",
"o  c #563B24",
"O  c #633F26",
"+  c #36541E",
"@  c #3E5B28",
"#  c #5A4C2B",
"$  c #455A2C",
"%  c #6A482A",
"&  c #6C4F2F",
"*  c #744E2A",
"=  c #7B542E",
"-  c #6A5934",
";  c #775937",
":  c #7C5D34",
">  c #46672A",
",  c #4A6837",
"<  c #596738",
"1  c #49793A",
"2  c #56783C",
"3  c #6C643A",
"4  c #796739",
"5  c #697A3F",
"6  c #77733D",
"7  c #58694A",
"8  c #4C7C42",
"9  c #537442",
"0  c #5A7643",
"q  c #537C43",
"w  c #5C7948",
"e  c #5B6852",
"r  c #7C6442",
"t  c #7B6A48",
"y  c #677A46",
"u  c #797747",
"i  c #737C44",
"p  c #657858",
"a  c #797A53",
"s  c #727F69",
"d  c #865C2C",
"f  c #895E2B",
"g  c #825C34",
"h  c #866537",
"j  c #8E6330",
"k  c #896833",
"l  c #8B663A",
"z  c #8C6B3B",
"x  c #956A38",
"c  c #946D3C",
"v  c #91713F",
"b  c #9C733C",
"n  c #A1763F",
"m  c #846C45",
"M  c #866C49",
"N  c #926E44",
"B  c #887548",
"V  c #8C744B",
"C  c #947344",
"Z  c #9B7542",
"A  c #92744D",
"S  c #9A7749",
"D  c #92794D",
"F  c #9C7B4B",
"G  c #816B50",
"H  c #8B7552",
"J  c #897956",
"K  c #8D7A54",
"L  c #937C53",
"P  c #987B56",
"I  c #A37B45",
"U  c #A67B46",
"Y  c #A47D4B",
"T  c #A27E55",
"R  c #9C7F60",
"E  c #70813F",
"W  c #4C8344",
"Q  c #548246",
"!  c #588248",
"~  c #5B8549",
"^  c #5E894C",
"/  c #5A994B",
"(  c #6E8543",
")  c #62844B",
"_  c #6A844B",
"`  c #638C4D",
"'  c #6B8E4E",
"]  c #728545",
"[  c #748149",
"{  c #758A48",
"}  c #6C934D",
"|  c #75954C",
" . c #759A4D",
".. c #7B9D4F",
"X. c #698555",
"o. c #648B51",
"O. c #6C8D53",
"+. c #778C55",
"@. c #679151",
"#. c #6C9352",
"$. c #6E9A51",
"%. c #729554",
"&. c #7B9552",
"*. c #749C53",
"=. c #799D53",
"-. c #749459",
";. c #779E5C",
":. c #7AA14F",
">. c #75A252",
",. c #7BA452",
"<. c #73A955",
"1. c #7BAA53",
"2. c #7DAD5A",
"3. c #77B159",
"4. c #7EB059",
"5. c #758767",
"6. c #6B9A62",
"7. c #779367",
"8. c #7F8A76",
"9. c #8D874B",
"0. c #89914D",
"q. c #898858",
"w. c #958255",
"e. c #9A8354",
"r. c #918D56",
"t. c #94825A",
"y. c #9B855C",
"u. c #93895C",
"i. c #9E885F",
"p. c #879657",
"a. c #839A52",
"s. c #95965A",
"d. c #A5814D",
"f. c #AB844C",
"g. c #B1884E",
"h. c #A48353",
"j. c #AF8853",
"k. c #A5835B",
"l. c #A58959",
"z. c #AB8B5D",
"x. c #B48D54",
"c. c #B38E5A",
"v. c #B8935B",
"b. c #BB955D",
"n. c #81A555",
"m. c #81AA55",
"M. c #86A45A",
"N. c #82AE5B",
"B. c #81B35D",
"V. c #9B8563",
"C. c #9D8A62",
"Z. c #988A66",
"A. c #839967",
"S. c #959865",
"D. c #9D9C64",
"F. c #8D9375",
"G. c #A28463",
"H. c #A38D64",
"J. c #AB8D62",
"K. c #A38E6A",
"L. c #B28E65",
"P. c #A59266",
"I. c #AB9265",
"U. c #A6926C",
"Y. c #AA946C",
"T. c #AC996D",
"R. c #B4946B",
"E. c #B89868",
"W. c #BB9C6C",
"Q. c #AA9671",
"!. c #A99877",
"~. c #AE9974",
"^. c #B29C75",
"/. c #BD9E74",
"(. c #B39E7A",
"). c #86AA66",
"_. c #99A869",
"`. c #86B262",
"'. c #88B566",
"]. c #8FAE73",
"[. c #A2A56F",
"{. c #A9A877",
"}. c #BEA274",
"|. c #B6A17C",
" X c #B9A37D",
".X c #B2AB7E",
"XX c #C39E66",
"oX c #C3A26A",
"OX c #C3A374",
"+X c #C6AA7D",
"@X c #C9A97A",
"#X c #919B87",
"$X c #909988",
"%X c #99AA88",
"&X c #94B080",
"*X c #9EA398",
"=X c #B5A582",
"-X c #BAA582",
";X c #BEA985",
":X c #BEAB89",
">X c #C1AC86",
",X c #CAAE84",
"<X c #C2AE8B",
"1X c #CDB285",
"2X c #C5B18D",
"3X c #CBB48D",
"4X c #CFB88F",
"5X c #D3B78B",
"6X c #C6B392",
"7X c #CAB593",
"8X c #CDB996",
"9X c #CEBB9A",
"0X c #D5BA92",
"qX c #D4BC94",
"wX c #D1BE9C",
"eX c #D9C097",
"rX c #D4C19E",
"tX c #DAC39C",
"yX c #E1C79F",
"uX c #D6C2A1",
"iX c #D9C6A4",
"pX c #DCC9A6",
"aX c #DBC7A8",
"sX c #DECBA9",
"dX c #E3CCA5",
"fX c #E1CEAC",
"gX c #E4D1AE",
"hX c #E9D3AE",
"jX c #E2CEB0",
"kX c #E6D3B2",
"lX c #E9D6B4",
"zX c #EBD9B6",
"xX c #EAD6B9",
"cX c #EDDCBA",
"vX c #F1DEBD",
"bX c #F2E1BF",
"nX c #F4E4C2",
"mX c #FCEBCA",
/* pixels */
"1.1.1.1.1.1.1.1.1.1.#.#.y -.#.1.1.1.,.1.1.,.,.,.1.1.1.1.1.1.1.1.1.1.1.1.1.1.1.1.,.1.4.B.,.,.,.1.,.,.1.n.] ( N.N.1.1.,.1.1.,...1.",
"1.1.1.1.,.1.1.1.1.1.1.1.1.1.1.1.1.1.1.1.1.,.,.B.1.1.1.1.1.1.>.*.1.1.1.1.1.1.,.,.,.,.1.1.,.:.,.,.,.,.( 6 C 3 1.1.1.1.,.1.,.,.,.1.",
"1.1.1.1.,.,.1.1.,.1.1.2.1.1.4.1.1.1.1.N.1.1.1.'.1.1.1.1.1.1.' < u ]  .,.1.1.,.,.,.1.1.,.,.,.,.,.,.6 Z U U 4 &.1.1.=.*.,.,.1.1.1.",
"1.1.,.1.1.,.,.,.,.,.,.1.,.1.1.1.1.1.1.N.N.1.1.1.1.1.1.1.1.1.y 4 A L t y 1.1.,.1.1.1.1.,.,.,.{ E 6 x.x.I Y 4  .1.=.=.1.,.@.` ~ 1.",
"1.1.,.1.1.1.,.,.,...,.,.,.4.B.1.N.1.1.1.>.*.1.1.*.,.1.,.1.1.y 4 F J.L.w.u | m.`.1...| E 4 4 z z b n b Y h.; } =.*.,.,.1.1.1.>.1.",
"1.1.1.1.N.1.1.1.,.1.1.1.,.2.2.1.1.1.1.=.>.1.1.1.} ,.1.=.1.1.i m k.J.R.R.k.B 6 4 4 h k h f f f j j f j Z C - ' ,.,.,.1.1.1.1.1.1.",
"1.1.1.1.`.1.1.1.1.1.1.1.1.'.1.1.1.1.,.*.$.,.1.*.%.,.,.=.1.1.] r N A T k.T Y Z d d x b x b x j f f f c z h & y ,.,.,.1.1.1.1.1.1.",
"1.1.1.`.`.1.1.1.1.N.`.1.>.>.1.1.1.1.1.>.*...,.#.' ,.,.,.1.1.| m k.k.T F S I Z j j j j Y E.W.L.c z x Z c z 4 3 ,.,.B.'.1.1.,.>.>.",
"1.1.1.N.1.>.*.=.1.`.1.B.1.>.1.1.1.1.1.1.1.,.,.#.` 1.,.,.1.1. .L W.J.F S Y f.Y b b I b j.3XkXpXJ.Y d.S C z : - ,.1.'.,.1.1.,.=.=.",
"1.1.1.`.1.,.-.-.,.1.1.1.>.N.1.1.1.1.1.,.1.1.,.} ` 1.1.1.1.1.{ y.OXR.L.c.j.x.f.f.x.x.f.L.eXvXzXwXE.W.h.F v : < *.,.1.,.1.1.1.,.,.",
"1.>.>.1.1.,.=.-.,.1.1.1.1.F.%X#XO.1.1.,.,.1.1.1.1.1.1.1.1.N.i R.1X@XW.v.x.x.x.x.b.XXY /.fXzXzXsXeX3XE.d.v h ; y ,.,.1.1.1.1.1.1.",
"1.*.-.1.1.,.1.1.B.N.1.1.F.*X*X$X$X5.) -.1.1.1.1.1.1.1.1.1.,.u ,X0XE.f.x.x.x.b.XXoX@X+X4XpXlXfX7X-XH & & : : : - | 1.N.1.1.1.>.>.",
"1.>.>.1.@.@.,.1.1.N.1.p e s 8.5.F.5.w ;.%.%.N.N.1.1.>.*.1. .B 1XoXf.U g.x.x.x.h.N ; G -XwXfXfX:Xt     r |.P A m 3 ,.N.1.1.,.=.=.",
"1.1.1.1.@.@.,.1.1.1.-.O.e e 7 e e e ) -.' *.`.N.1.1.@.@.1.0 P.@Xx.x.g.f.I Z c.A o . X H uXfXfX6Xt # G 6X3Xy.y.H t { ,.N.,.1.,.,.",
"1.1.1.1.>.^ ,.,.1.1.1.1.=.-.X.X.y 0 ) O.O.#.1.,.1.1.1.! 1.y +XoXb.W.c.Z c z.5X7XV.G V.(.aXlXjX9X-X7XfXsX-XH.L M B i 1.,.1.1.1.1.",
"1.N.1.1.>.^ ,.1.1.1.1.N.N.1.2.1.1.2.1.=.=.=.,.1.1.1.1.` ) Z.eX1X+X5XqXqX3X3XeXfXkXkXlXvXcXcXvXxX9XiXkX9XU.L m m K J  .1.1.1.1.`.",
"N.N.1.1.1.1.1.1.1.1.1.N.N.N.N.1.1.1.,.1.1.1.1.1.4.1.1.,.9 Z.pXpXpXpXfXfXfXpXpXfXkXnXmXmXnXlXcXvXuX7X9X(.L m m m L K { 1.>.>.>.`.",
"1.N.1.1.1.1.1.1.1.1.1.1.4.1.m.1.1.,...,.N.N.1.1.1.1.1.,.0 K.sXkXlXfXiXrXwX7X3X7XiXcXnXnXcXkXqX7X(.~.-XY.t.V V D w.q.[ >.*.1.$.1.",
"1.1.1.,.1.1.,.1.1.1.1.1.4.1.,.1.,.,...,.1.`.].N.1.1.B.1.X.!.pXgXlXgXiX8X>X X|.;XwXfXkXlXfXfX7XR V K.K.K.y.L L L y.t.i @.$.` ^ 1.",
"1.1.1.,.1.,.,.,.,.1.N.@.$.1.1.1.1.,.1.1.1.1.1.1.1.1.B.1.;.!.sXpXgXlXkXpX7X-X(. X>XrXfXpXwX6X>XH.y.y.L L L L y.i.H.q._ ` $.^ >.1.",
"1.1.1.1.1.1.1.,.*.1.N.1.N.N.1.1.1.4.>.1.1.1.1.1.,.1.1.1.=.!.iXiXpXgXlXlXlXsXrX2X;X;X2X>X X^.H.L L V M V L w.y.i.t.u q Q <.Q ;.,.",
"1.1.N.1.1.1.1.1.`.1.1.1.].'.].2.#.>.$.1.1.1.1.1.,.1.2.1.| U.sXiXiXsXkXkXkXgXfXsX8X;X^.I.H.l.w.L V M V A L w.H.C.H t 9 Q 3.~ ;.2.",
"1.1.N.1.1.1.1.1.4.B.1.&X'.B.).7.^ ` #.1.,.*.1.,.>.,.1.>.[ 2XgXuXuXsXsXpXpXsXsXiXiX8X;XY.H.i.V B V D L L L L w.L L H t ! 3.o.6.B.",
"4.1.1.1.1.1.>.4.4.2.F.7.-.2.).7.O.1.#.1.1.*.1.*.=.| ( 4 D qXzXhXpXiXuXrXrXrXwXwXwXwX3X|.T.H.D D D L L w.w.L D L y.y.J 0 3.) 6.1.",
"B.1.N.1.,.,.` 1.1.2.-.p X.6.).X.-.,.*.1.1.*.,.=.] 4 d x h.3XzXbXzXgXpXiXuXrXrXwX8X8X7X;X|.T.i.y.l.i.i.w.y.w.w.y.y.K.Z.9 ` q ,.4.",
"1.1.1.1.,.,.' ,.<.>.@.*.,.2.1.*.*.1.>.>.1.*...i z I b x Y +XgXvXnXnXzXsXpXsXiXiXwX9XwX9X2X;X|.Y.I.Y.K.y.i.C.P.Y.~.!.J *.! 9 1.4.",
"`.1.N.1.,.,.*.*.*.%.@.,.2.1.=.=.,.1.>.,.=.| z I x.b.x.f.I R.dXlXzXvXnXnXlXsXfXkXfXsXiXiXrX8X8X;X|.(.^.Y.I.I.^.^.~.K.a } *.-.1.4.",
"4.1.1.1.,.,.*.#.=.,.#.1.1.,.,.>.,.` Q Q w 6 b f.b.XXXXx.b T qXzXlXlXzXcXnXnXbXzXkXkXlXzXkXfXsXuXwX7X<X-X^.Y.H.y.t.t.+.#.>.,.1.1.",
"1.1.1.N.1.1.1.,.1.,.*.,.1.#.@.^ ` Q q ~ 9.Z I c.XXb.x.f.b Y 2XgXkXkXlXzXzXzXzXkXkXcXbXzXlXzXzXkXiX9X7X;X|.(.~.U.C.C.&.1.N.*.1.1.",
"N.1.1.1.>.>.>.1.1.1.1.1.1.>.>.^ @.` Q i Z I x.b.b.x.j.I Z z.qXsXsXfXfXfXsXfXgXfXzXcXzXlXgXlXzXsXwXwX9X8X>X-X>X-XU.u.#.2.N.-.,.1.",
"1.1.1.>.@.^ ^ 1.1.1.1.1.,.,.1.1.1.1.n.e.Y j.j.j.v.XXW.c.Y OXfXkXgXfXfXfXfXfXfXfXgXkXkXkXsXiXiXuX8X9XuXuX6X;X;X(.C.q.=.1.1.1.1.1.",
"1.1.1.1.1.1.1.1.1.1.1.1.,.,.1.1.1.1.s.d.x.E.c.c.@X0X5XW.h.1XzXlXkXlXkXsXiXiXsXsXsXiXrXsXsXiXrX9X7X8X9X7X:X;X(.C.L w.1.1.1.1.1.1.",
"1.1.1.1.1.1.1.1.,.1.4.B.,.,.,.1.,.n.e.h.W.OXOX,XqXyXdX+Xz.qXvXlXlXcXzXkXsXiXiXiXuX8X2X8XwXiXrX2X2X7X6X;X(.(.K.t.L w.n.1.1.1.1.1.",
"1.1.1.1.1.1.,.,.,.a.a.,.,.:.a.a.a.s.F z.OX@X5XtXdXhXlXqX}.tXvXzXlXzXzXzXlXkXgXsXrX7X<X>X>X2X<X>X2X>X;X-XQ.H.y.y.y.u.1.1.1.1.>.>.",
"1.1.>.,.1.1.,.,.s.e.D D 9.9.B z S h.F z.@X0XdXlXlXlXzXdXeXhXbXvXzXlXzXzXzXcXzXlXiX8X2X>X;X X-X;X;X X~.~.H.y.i.i.y.u.1.1.1.1.*.>.",
"1.1.@.%.1.m.M.s.J.z.F l g g = = l F h.}.qXdXhXlXlXzXvXvXcXbXnXvXcXzXzXzXzXcXzXkXiXrX8X7X>X|.|. X|.T.i.y.y.y.i.C.y.u.n.1.1.1.$.>.",
"1.1.^ 1...r.l.J.z.h.C g = = * * N z.L.+XtXfXlXzXzXvXvXvXnXnXnXcXbXbXcXzXlXlXfXiXwX9X7X2X>X X^.|.(.H.y.y.y.K.I.Y.H.C.n.1.1.1.#.>.",
"@.=._ 0.w.k.l.h.T S l = * = * ; P R.E.+XtXkXcXzXzXvXbXbXnXnXnXcXcXcXlXgXfXfXiXrXqX8X2X(.|.|.~.~.T.H.y.C.K.T.|.|.~.C.n.,.1.1.,.>.",
">.,.r.T.I.J.z.h.S N l g = * % & A R.}.}.0XfXzXzXzXcXbXvXcXnXmXnXzXlXkXfXsXsXiXiXuXwX2X X X^.~.Y.P.H.K.U.T.(. X|.~.u.,.,.1.1.1.=.",
"1.M.^.T.I.I.z.h.S c l g g % X O P ,X,XW.+XeXgXlXzXcXcXzXcXnXmXnXzXlXlXfXsXsXsXuXwX8X2X2X<X|.~.T.I.H.I.Y.^.|.^.Q.H.w.,.,.1.1.1.1.",
"2.D.^.I.I.I.z.h.S z l h = X X & G.4X5XW.}.1XtXkXzXcXcXcXnXnXnXnXvXlXfXiXiXrX9X7X7X7X6X>X-X|.^.T.I.I.Y.I.~.~.Y.U.K.u.,.,.1.1.1.`.",
"1.D.T.I.I.J.h.F C z l h % o # & G.qXeX+XW.}.qXgXlXzXcXbXnXbXcXcXvXzXgXfXuXwX8X7X7X7X>X;X(.(.^.Y.Y.~.T.U.T.~.(.|.~.u.1.1.1.1.N.N.",
"1.D.Y.I.J.l.e.S C l h : - < $ - ^.fXdX1X}.OX4XpXkXlXcXcXcXlXlXlXzXvXcXlXfXpXuXwX7X>X X^.~.~.^.I.Q.|.^.U.^.;X2X>X|.Z.,.1.1.N.N.1.",
"1.p.I.I.l.e.F C z l : - { ..y B 8XlXgXtX1X+X,XwXfXkXzXzXkXkXgXsXsXlXcXcXzXkXsXrXwX7X>X~.H.I.^.H.~. X~.Q.;X8X9X7X:XU.,.1.1.1.1.1.",
"1.,.H.I.H.e.D N l : 3 i ,.N.[ Y.tXfXlXlXdX0X1X4XtXgXkXkXgXfXfX9X9XsXkXlXlXkXsXuXwX9X7X-XH.C.Y.K.Y.^.Y. XwXrX8X2X-XZ.%.*.1.=.1.1.",
"1.1.M.P.i.V m ; - i _ | ..,.i (.qXfXlXlXlXgXtX8XqXpXsXfXfXsXpX6X<XiXsXsXfXfXiXuXwX7X<X-XY.V.y.C.K.U.Y.:XwX9X6X<X-XU.' @.1.^ #.1.",
"1.1.1.n.[ 6 5 ( ] ..' =...,.q.^.3XiXkXlXzXzXgXtXwXwXiXpXpXiXuX<X-X9XsXsXsXsXsXiXuX7X2X|.K.t.H L L L H.|.2X7X9X9X6X!.=.~ 1.Q Q 1.",
",.,.1.1.,.=.=.,.....` =.=.:.p.|.3XiXgXlXzXzXkXfXtXwXwXrXuXrXwX>X^.;XrXuXrXuXiXiXuX7X<X(.P V r t r r M V.(.8XuXuX9X{.a.` o.>.1 1.",
"%.%.2 X.2 , w ,.,.| ' =...,.p.>XiXfXfXfXkXkXkXfXuX8X8X8X8X8X3X;X^.U.|.7XwXwXuXuXwX9X6X:XV.r u [ i 3 K Y.;XwXuXuX9X=Xa.,.W @.8 1.",
"-.2 0 X.2 1 w 2 2 %.| ..m.,.=.=XrXsXsXiXuXiXiXuXwX8X7X7X3X2X>X X^.H.K.>XrXuXuXuXuXwX9X<XK.u n.,.,.| Z.>XwXuXuXuXuX2Xp.,.Q ` 1.%.",
"+ $ , 2 %.2 , , w =.,.,.,.1.n.[.8XuXiXiXiXuXrXwXwXwX8X7X2X>X X(.^.Y.Y.(.8XwXrXuXiXuX8X>XQ.&.,.1.,.,.q.;X8XqXuXiXuX6XS.1.@.1 ) =.",
"2 @ + $ 0 , @ > @ %.@.,.,.1.1._.9XwXwXuXiXuXwX9XwXwX9X2X>X;X|.^.~.~.~.U.|.8XwXuXuXrX9X7X(.&.,.1.1.,.=.u.-X>XwXaXiX7XS.1.B.Q %.*.",
"*.O.O.*.*.1.%.%.,.1.#.1.1.1.1._.wXwX7X7XwXwXwXrXuXwX8X>X X-X(.~.T.T.~.U.Q.>X9XwXuXuXuX9X:Xq.1.1.1.4.>.| Q.;X7XuXiX7XS.1.4.1.1.,.",
"*.*.*.1.1.1.1.).%X$X7.,.1.1.,.;.:XwX7X:X<X8XuXuXwX8X7X;X|. X(.~.Q.U.Q.~.~.(.6X9XuXiXuX9X7XK.).2.$.>.#.>.q.;X9XuXuX6XS.1.1.4.1.1.",
"1.1.1.1.1.1.&X*X*X*X$XA.1.1.,.*.O.[.2X-X;X9XwX8X<X>X:X|.(.|.|.~.Q.Q.!.(.(.~.-X9XwXwX9X9X6X(.+.7.^ o.` 1.[ <XwXiXwX6XS.1.1.1.1.4.",
"`.].'.1.1.N.].$X*X#XF.%.,.1.,.1.o.o.).!.-X;X-X(.(. X;X|.~.-X|.Q.K.Q.!.(.(.K.!.6X9X8X8X7X6X:Xa 5.O.1.` 1.| =XwXiXuX7X!.a.1.1.1.B.",
"1.'.'.1.1.1.A.A.7.5._ =.=.1.,.,.1.Q 3.o.A.K.C.H.Q.|.|.~.Q.^.~.K.K.K.K.K.Z.H V.:X8XwXuXwX9X<XZ.p -.=.) 1.&.:XwXiXiXwX7X!.S.1.1.1.",
"1.1.1.1.4.1.>.=.=.,.,.1.1.1.1.,.>.8 #.! ^ A.Z.t.V.U.U.H.L L L H H J H t i { y !.9XiXsXiXuX9X!.i *.2.} } =.(.wXiXaXaXuX9X7X{.M.1.",
"1.1.1.1.1.1.1.1.1.1.>.#.1.1.1.,.,.^ ~ W O.6.-.u.L H M M r 3 3 3 3 u [ ..,.,.*.q.6XiXfXfXsXuX7XQ.&.1. .,.) t.9XsXfXsXsXiXuX8X{.1.",
"1.B.1.1.1.1.1.1.` >.>.~ =.=.1.*.#.*.^ 8 ,.1.>.#.&.y y _ &.,.,.,.1.,.1.1.,.,.*.+.=XiXsXuXwXrXuX7Xp.` q Q ~ a 9XsXsXiXaXiXuX9X{.1.",
"4.4.1.1.1.1.1.1.` @.1.>.^ ^ 1.^ #.*.>.*.=.,.1.>.#.` %.1.N.*.1.1.1.1.1.N.1.1.1.=.{.wXrXuXwXwXwX<Xq.Q q ! 1.^ ) _..X6X9X7X.XS.-.1.",
"4.1.1.1.1.>.@.@.#.Q >.>.W / @.@.,.,.,.,.=.,.1.,.=.@.#.2.N.-.,.1.N.2.1.1.>.>.>.1._.>X>X8X8X7X7X>Xq.` Q Q 1.1.>.1.1.n.n.n.1.1.1.1.",
"1.1.1.1.>.` @.@.,.~ ^ >.8 ` 8 ! 1.1.1.1.=.1.4.1.1.^ =.1.1.1.1.1.1.1.1.>.@.^ ^ 1.1.D.^.-X3X;X-XC.,.1.1.1.1.1.1.1.).1.1.1.1.1.m.1.",
"1.1.1.1.1.1.1.1.1.@.~ ~ , 0 9 ) 1.1.,.1.1.1.4.1.1.1.1.1.1.1.1.1.1.1.1.1.1.1.1.1.1.1.M.D.T.s.0.:.1.1.).N.N.1.1.N.1.1.N.,.1.,.m.1."
};
